<?xml version="1.0" encoding="UTF-8"?>
<svg id="Earth" xmlns="http://www.w3.org/2000/svg" version="1.1" viewBox="0 0 512 512">
  <!-- Generator: Adobe Illustrator 29.8.2, SVG Export Plug-In . SVG Version: 2.1.1 Build 3)  -->
  <defs>
    <style>
      .st0 {
        fill: #fff;
      }
    </style>
  </defs>
  <path class="st0" d="M511,305.9c-6.8-17.4-35.3-34-69.2-40.3-24.4-4.6-86.5-9.4-134.4,43.2-32.3,35.4-39.9,82.1-18.6,113.6.3.4.7.8,1,1.2-40.4,19.9-87.4,25-131.8,13,23.2-16.7,30.1-33.8,31.5-46.3,2.1-19.1-7.5-34.5-16.3-41.9-10.5-8.8-24-9.7-34.8-10.5-11.5-.8-17.2-1.6-19.3-5.6-1.9-3.5-1.5-5,1.5-11.9,4-9,10-22.7,2.4-46.1-2.9-9.1-.2-13.2,4.3-20,4.6-6.9,10.9-16.4,7.8-31-1.6-7.5-6.6-17.8-21.9-24.1-22.4-9.2-57.3-5.5-86.8,7.6,4.6-16.8,11.6-33.1,20.9-48.4,36.7-60.3,102.4-92.4,168.5-89.4-2.8,11.9,2.3,24.3,6.4,34.1,3.2,7.8,6.5,15.8,5.5,21.3-1,5.4-7.2,10-13.7,14.9-9.1,6.8-20.3,15.2-20.5,29.8,0,7.5,2.1,13.7,6.6,18.2,8.5,8.7,22.4,8.7,35.9,8.7,7.5,0,15.2,0,21.5,1.5,5.9,1.3,10,6.6,14.7,12.7,5.6,7.2,11.9,15.3,22.5,16.8,2,.3,4,.4,5.8.4,16.1,0,23.5-10.8,29.5-19.7,3.5-5.1,7.1-10.4,12.5-14.6h0c4-3,11.3-4.6,18.4-6.1,6-1.3,12.4-2.6,18-5.2,6.4,14.9,10.9,30.7,13.3,47.1.8,5.4,5.8,9.1,11.1,8.3,5.4-.8,9.1-5.8,8.3-11.1-8.8-61.2-44.2-114.8-96.9-147C217.2,20.1,89.8,51,30.3,148.3,1.6,195.4-7.1,251,5.9,304.6c13,53.7,46.1,99.1,93.2,127.9,33.6,20.4,70.7,30.2,107.4,30.2s67-8.3,96.8-23.9c16.4,14.3,38,22.6,59.9,22.6s7.7-.2,11.5-.8c23.1-3.2,65.4-19.1,89.4-90.4,10.9-32.3,27.5-41.3,36.4-46.1,4.8-2.6,14.7-7.9,10.6-18.3h0ZM356.7,168.1c-8.8,1.8-18.8,3.9-26.3,9.7-8,6.1-12.9,13.3-16.8,19.1-6.5,9.5-8.5,12-16.3,10.9-2.8-.4-6.3-5-9.7-9.4-5.9-7.6-13.2-17-25.9-19.8-8.3-1.9-17.2-1.9-25.8-2-8.1,0-19.2,0-21.9-2.8-.8-.8-1-2.7-1-4.2,0-4.6,4.8-8.4,12.6-14.3,8.4-6.3,18.8-14,21.2-27,2.1-11.3-2.5-22.6-6.6-32.5-5.1-12.4-7.3-19.2-4.4-24.6,23.6,3.7,46.8,11.9,68.4,25.1,27.8,17,50.3,40.6,65.8,68.2-3.6,1.5-8.8,2.6-13.3,3.5h0ZM21.5,231.4c28.4-17.4,65.8-21.4,84.1-13.9,5.8,2.4,9.2,5.7,10.1,9.8,1.3,6.2-.7,9.6-5,16.1-5.2,8-12.4,18.9-6.6,36.9,5.3,16.3,1.9,24-1.7,32.1-3.3,7.6-7.5,16.9-.8,29.2,7.5,13.9,22.9,15,35.3,15.8,9.2.6,18,1.2,23.5,5.9,4.1,3.5,10.7,12.6,9.4,24.7-1.6,14.3-13.9,28.1-35.7,40.2-8.4-3.5-16.6-7.7-24.6-12.6-42.7-26.1-72.6-67.1-84.4-115.8-5.4-22.3-6.6-45-3.9-67.1.1-.5.2-1,.4-1.5h0ZM445.4,364c-15.2,45.4-41.3,72.7-73.4,77.1-19.4,2.6-40-3.9-54.9-16.4,17.7-34.6,39.5-61.4,65-79.6,4.4-3.2,5.5-9.3,2.3-13.7-3.2-4.4-9.3-5.4-13.7-2.3-26.3,18.8-48.9,45.5-67.4,79.5-13.6-23.7-6.1-59.4,18.6-86.5,29.4-32.3,65.2-39.4,91-39.4s19.2,1.2,25.3,2.3c24.9,4.6,43.2,14.9,50.9,23-11.1,6.1-31.2,18.7-43.7,56.1h0Z"/>
</svg>